<mxfile host="app.diagrams.net" modified="2023-12-16T08:14:52.002Z" agent="Mozilla/5.0 (Windows NT 10.0; Win64; x64) AppleWebKit/537.36 (KHTML, like Gecko) Chrome/120.0.0.0 Safari/537.36" etag="CTZltkpSLDlyXTbTumNR" version="22.1.11" type="device">
  <diagram name="Page-1" id="sTLAMJMNHMfNNX3CN_xu">
    <mxGraphModel dx="2284" dy="738" grid="1" gridSize="10" guides="1" tooltips="1" connect="1" arrows="1" fold="1" page="1" pageScale="1" pageWidth="850" pageHeight="1100" math="0" shadow="0">
      <root>
        <mxCell id="0" />
        <mxCell id="1" parent="0" />
        <mxCell id="Nb5OPUUXXPXVl7wFtavO-1" value="Vehiculo" style="swimlane;fontStyle=1;align=center;verticalAlign=top;childLayout=stackLayout;horizontal=1;startSize=26;horizontalStack=0;resizeParent=1;resizeParentMax=0;resizeLast=0;collapsible=1;marginBottom=0;whiteSpace=wrap;html=1;" parent="1" vertex="1">
          <mxGeometry x="210" y="120" width="340" height="114" as="geometry" />
        </mxCell>
        <mxCell id="Nb5OPUUXXPXVl7wFtavO-2" value="- duenyo: String&lt;br&gt;- puertas: int&lt;br&gt;- edad: int" style="text;strokeColor=none;fillColor=none;align=left;verticalAlign=top;spacingLeft=4;spacingRight=4;overflow=hidden;rotatable=0;points=[[0,0.5],[1,0.5]];portConstraint=eastwest;whiteSpace=wrap;html=1;" parent="Nb5OPUUXXPXVl7wFtavO-1" vertex="1">
          <mxGeometry y="26" width="340" height="54" as="geometry" />
        </mxCell>
        <mxCell id="Nb5OPUUXXPXVl7wFtavO-3" value="" style="line;strokeWidth=1;fillColor=none;align=left;verticalAlign=middle;spacingTop=-1;spacingLeft=3;spacingRight=3;rotatable=0;labelPosition=right;points=[];portConstraint=eastwest;strokeColor=inherit;" parent="Nb5OPUUXXPXVl7wFtavO-1" vertex="1">
          <mxGeometry y="80" width="340" height="8" as="geometry" />
        </mxCell>
        <mxCell id="Nb5OPUUXXPXVl7wFtavO-4" value="+ Vehiculo(duenyo: String, puertas: int, edad: int)" style="text;strokeColor=none;fillColor=none;align=left;verticalAlign=top;spacingLeft=4;spacingRight=4;overflow=hidden;rotatable=0;points=[[0,0.5],[1,0.5]];portConstraint=eastwest;whiteSpace=wrap;html=1;" parent="Nb5OPUUXXPXVl7wFtavO-1" vertex="1">
          <mxGeometry y="88" width="340" height="26" as="geometry" />
        </mxCell>
        <mxCell id="Nb5OPUUXXPXVl7wFtavO-5" value="Coche" style="swimlane;fontStyle=1;align=center;verticalAlign=top;childLayout=stackLayout;horizontal=1;startSize=26;horizontalStack=0;resizeParent=1;resizeParentMax=0;resizeLast=0;collapsible=1;marginBottom=0;whiteSpace=wrap;html=1;" parent="1" vertex="1">
          <mxGeometry x="-90" y="340" width="500" height="130" as="geometry" />
        </mxCell>
        <mxCell id="Nb5OPUUXXPXVl7wFtavO-6" value="- descapotable: boolean&lt;br&gt;- capotaSubida: boolean" style="text;strokeColor=none;fillColor=none;align=left;verticalAlign=top;spacingLeft=4;spacingRight=4;overflow=hidden;rotatable=0;points=[[0,0.5],[1,0.5]];portConstraint=eastwest;whiteSpace=wrap;html=1;" parent="Nb5OPUUXXPXVl7wFtavO-5" vertex="1">
          <mxGeometry y="26" width="500" height="44" as="geometry" />
        </mxCell>
        <mxCell id="Nb5OPUUXXPXVl7wFtavO-7" value="" style="line;strokeWidth=1;fillColor=none;align=left;verticalAlign=middle;spacingTop=-1;spacingLeft=3;spacingRight=3;rotatable=0;labelPosition=right;points=[];portConstraint=eastwest;strokeColor=inherit;" parent="Nb5OPUUXXPXVl7wFtavO-5" vertex="1">
          <mxGeometry y="70" width="500" height="8" as="geometry" />
        </mxCell>
        <mxCell id="Nb5OPUUXXPXVl7wFtavO-8" value="+ Coche(duenyo: String, puertas: int, edad: int, descapotable: boolean)&lt;br&gt;+ subirBajarCapota(descapotable: boolean, capotaSubida: boolean): boolean&amp;nbsp;" style="text;strokeColor=none;fillColor=none;align=left;verticalAlign=top;spacingLeft=4;spacingRight=4;overflow=hidden;rotatable=0;points=[[0,0.5],[1,0.5]];portConstraint=eastwest;whiteSpace=wrap;html=1;" parent="Nb5OPUUXXPXVl7wFtavO-5" vertex="1">
          <mxGeometry y="78" width="500" height="52" as="geometry" />
        </mxCell>
        <mxCell id="Nb5OPUUXXPXVl7wFtavO-9" value="Camioneta" style="swimlane;fontStyle=1;align=center;verticalAlign=top;childLayout=stackLayout;horizontal=1;startSize=26;horizontalStack=0;resizeParent=1;resizeParentMax=0;resizeLast=0;collapsible=1;marginBottom=0;whiteSpace=wrap;html=1;" parent="1" vertex="1">
          <mxGeometry x="550" y="345" width="410" height="120" as="geometry" />
        </mxCell>
        <mxCell id="Nb5OPUUXXPXVl7wFtavO-10" value="- carga: int&lt;br&gt;- tara: int" style="text;strokeColor=none;fillColor=none;align=left;verticalAlign=top;spacingLeft=4;spacingRight=4;overflow=hidden;rotatable=0;points=[[0,0.5],[1,0.5]];portConstraint=eastwest;whiteSpace=wrap;html=1;" parent="Nb5OPUUXXPXVl7wFtavO-9" vertex="1">
          <mxGeometry y="26" width="410" height="44" as="geometry" />
        </mxCell>
        <mxCell id="Nb5OPUUXXPXVl7wFtavO-11" value="" style="line;strokeWidth=1;fillColor=none;align=left;verticalAlign=middle;spacingTop=-1;spacingLeft=3;spacingRight=3;rotatable=0;labelPosition=right;points=[];portConstraint=eastwest;strokeColor=inherit;" parent="Nb5OPUUXXPXVl7wFtavO-9" vertex="1">
          <mxGeometry y="70" width="410" height="8" as="geometry" />
        </mxCell>
        <mxCell id="Nb5OPUUXXPXVl7wFtavO-12" value="+ Camioneta(duenyo: String, puertas: int, edad: int, tara: int, carga: int)&lt;br&gt;+ cargarKilos(carga: int, tara: int): int" style="text;strokeColor=none;fillColor=none;align=left;verticalAlign=top;spacingLeft=4;spacingRight=4;overflow=hidden;rotatable=0;points=[[0,0.5],[1,0.5]];portConstraint=eastwest;whiteSpace=wrap;html=1;" parent="Nb5OPUUXXPXVl7wFtavO-9" vertex="1">
          <mxGeometry y="78" width="410" height="42" as="geometry" />
        </mxCell>
      </root>
    </mxGraphModel>
  </diagram>
</mxfile>
